<?xml version="1.0" encoding="UTF-8" standalone="no"?>
<svg
   viewBox="0 0 48 48"
   version="1.1"
   id="svg4"
   sodipodi:docname="github.svg"
   inkscape:version="1.2.1 (9c6d41e410, 2022-07-14)"
   xmlns:inkscape="http://www.inkscape.org/namespaces/inkscape"
   xmlns:sodipodi="http://sodipodi.sourceforge.net/DTD/sodipodi-0.dtd"
   xmlns="http://www.w3.org/2000/svg"
   xmlns:svg="http://www.w3.org/2000/svg">
  <defs
     id="defs8" />
  <sodipodi:namedview
     id="namedview6"
     pagecolor="#ffffff"
     bordercolor="#000000"
     borderopacity="0.25"
     inkscape:showpageshadow="2"
     inkscape:pageopacity="0.0"
     inkscape:pagecheckerboard="true"
     inkscape:deskcolor="#d1d1d1"
     showgrid="false"
     inkscape:zoom="16.166667"
     inkscape:cx="21.958763"
     inkscape:cy="26.28866"
     inkscape:window-width="1920"
     inkscape:window-height="974"
     inkscape:window-x="-11"
     inkscape:window-y="-11"
     inkscape:window-maximized="1"
     inkscape:current-layer="svg4" />
  <g
     id="icon-github"
     fill="none"
     fill-rule="evenodd"
     transform="matrix(1.279248,0,0,1.279248,-7.0722943,-6.5579514)"
     style="fill:#ffffff">
    <path
       id="Fill-51"
       fill="#f6f4f2"
       d="M 24.288,8 C 15.294,8 8,15.293 8,24.29 c 0,7.197 4.667,13.302 11.14,15.456 0.815,0.15 1.112,-0.353 1.112,-0.785 0,-0.387 -0.014,-1.411 -0.022,-2.77 -4.531,0.984 -5.487,-2.184 -5.487,-2.184 -0.741,-1.882 -1.809,-2.383 -1.809,-2.383 -1.479,-1.01 0.112,-0.99 0.112,-0.99 1.635,0.115 2.495,1.679 2.495,1.679 1.453,2.489 3.813,1.77 4.741,1.353 0.148,-1.052 0.569,-1.77 1.034,-2.177 -3.617,-0.411 -7.42,-1.809 -7.42,-8.051 0,-1.778 0.635,-3.233 1.677,-4.371 -0.168,-0.412 -0.727,-2.069 0.16,-4.311 0,0 1.367,-0.438 4.479,1.67 a 15.602,15.602 0 0 1 4.078,-0.549 15.62,15.62 0 0 1 4.078,0.549 c 3.11,-2.108 4.475,-1.67 4.475,-1.67 0.889,2.242 0.33,3.899 0.163,4.311 1.044,1.138 1.674,2.593 1.674,4.371 0,6.258 -3.809,7.635 -7.437,8.038 0.584,0.503 1.105,1.497 1.105,3.016 0,2.178 -0.02,3.935 -0.02,4.469 0,0.436 0.294,0.943 1.12,0.784 C 35.916,37.586 40.579,31.485 40.579,24.29 40.579,15.293 33.285,8 24.288,8"
       style="fill:#ffffff" />
  </g>
</svg>
